HIERARCHY
ROOT Hips
{
	OFFSET	0.000000	0.000000	0.000000
	CHANNELS 6 Xposition Yposition Zposition Zrotation Xrotation Yrotation
	JOINT LeftHip
	{
		OFFSET	11.298959	-8.380145	1.031225
		CHANNELS 3 Zrotation Xrotation Yrotation
		JOINT LeftKnee
		{
			OFFSET	-1.779039	-39.577010	0.417431
			CHANNELS 3 Zrotation Xrotation Yrotation
			JOINT LeftAnkle
			{
				OFFSET	0.890862	-42.943018	-6.321374
				CHANNELS 3 Zrotation Xrotation Yrotation
				JOINT LeftAnkleEnd
				{
					OFFSET	-0.632740	-5.685484	-5.621922
					CHANNELS 3 Zrotation Xrotation Yrotation
					End Site
					{
						OFFSET	0.012764	-1.270000	17.907022
					}
				}
			}
		}
	}
	JOINT RightHip
	{
		OFFSET	-11.298959	-8.380145	1.031225
		CHANNELS 3 Zrotation Xrotation Yrotation
		JOINT RightKnee
		{
			OFFSET	1.779039	-39.577010	0.417431
			CHANNELS 3 Zrotation Xrotation Yrotation
			JOINT RightAnkle
			{
				OFFSET	-0.890862	-42.943018	-6.321374
				CHANNELS 3 Zrotation Xrotation Yrotation
				JOINT RightAnkleEnd
				{
					OFFSET	0.632740	-5.685484	-5.621922
					CHANNELS 3 Zrotation Xrotation Yrotation
					End Site
					{
						OFFSET	-0.012764	-1.270000	17.907022
					}
				}
			}
		}
	}
	JOINT Chest
	{
		OFFSET	0.000013	6.720637	2.223076
		CHANNELS 3 Zrotation Xrotation Yrotation
		JOINT Chest1
		{
			OFFSET	-0.073051	18.182640	-2.749017
			CHANNELS 3 Zrotation Xrotation Yrotation
			JOINT LeftCollar
			{
				OFFSET	7.790763	29.076902	-2.820492
				CHANNELS 3 Zrotation Xrotation Yrotation
				JOINT LeftShoulder
				{
					OFFSET	13.187018	-7.309688	1.779387
					CHANNELS 3 Zrotation Xrotation Yrotation
					JOINT LeftElbow
					{
						OFFSET	3.671976	-29.168340	5.964022
						CHANNELS 3 Zrotation Xrotation Yrotation
						JOINT LeftWrist
						{
							OFFSET	0.572018	-25.624790	10.228225
							CHANNELS 3 Zrotation Xrotation Yrotation
							End Site
							{
								OFFSET	-1.779270	-8.879179	2.542515
							}
						}
					}
				}
			}
			JOINT RightCollar
			{
				OFFSET	-7.644689	29.076902	-2.820492
				CHANNELS 3 Zrotation Xrotation Yrotation
				JOINT RightShoulder
				{
					OFFSET	-13.187018	-7.309688	1.779387
					CHANNELS 3 Zrotation Xrotation Yrotation
					JOINT RightElbow
					{
						OFFSET	-3.671976	-29.168340	5.964022
						CHANNELS 3 Zrotation Xrotation Yrotation
						JOINT RightWrist
						{
							OFFSET	-0.572018	-25.624790	10.228225
							CHANNELS 3 Zrotation Xrotation Yrotation
							End Site
							{
								OFFSET	1.779270	-8.879179	2.542515
							}
						}
					}
				}
			}
			JOINT Neck
			{
				OFFSET	-0.441376	29.919930	-1.795122
				CHANNELS 3 Zrotation Xrotation Yrotation
				JOINT Head
				{
					OFFSET	-0.451988	10.184461	3.285312
					CHANNELS 3 Zrotation Xrotation Yrotation
					End Site
					{
						OFFSET	-0.448112	13.050622	-3.935146
					}
				}
			}
		}
	}
}
MOTION
Frames:     12
Frame Time: 0.008333
16.089847	103.448219	-12.923447	177.069962	-137.322998	-80.972298	39.216202	-25.893902	40.313801	-2.715061	13.524396	4.519492	15.815901	8.588021	8.143986	0.	0.	0.	-40.159801	-40.805508	-16.317497	2.052265	51.870308	4.531585	-1.808972	-3.380299	-14.124800	0.	0.	0.	2.423760	25.082802	-19.921000	-13.782705	-13.775399	11.320301	15.167796	3.078994	-20.195700	6.236316	-51.886505	-34.577602	52.679020	-111.268311	45.757992	25.172701	-3.088257	-1.464129	10.448897	-12.443397	-2.088270	-15.827604	36.471405	-17.257202	48.112209	-60.470501	78.945290	-52.966999	15.553902	-28.911703	11.149197	3.394844	-35.081100	12.904193	18.007801	-21.167301	
16.589389	103.769352	-12.173494	176.609299	-135.425507	-80.671600	40.708900	-26.103600	40.680698	-2.823858	11.706900	6.350008	16.204000	8.732788	8.563787	0.	0.	0.	-39.452801	-39.886200	-16.392799	-1.784228	49.657703	7.588561	-1.908120	-3.151596	-14.304600	0.	0.	0.	2.296591	24.763800	-19.694099	-13.306197	-13.997998	10.992396	15.845704	3.442371	-20.394001	3.271588	-50.494297	-36.337902	53.930996	-112.174927	48.636997	25.085400	-3.860288	-1.837983	10.743700	-12.978900	-2.520882	-15.234800	36.989304	-18.493902	53.605106	-60.669701	84.006287	-53.448502	14.883492	-27.811502	11.682200	3.715661	-35.145302	12.908398	18.208696	-20.934202	
17.098846	104.015210	-11.450918	176.188675	-133.668808	-80.610901	42.101501	-26.185900	40.905602	-3.008739	9.996496	8.233325	16.555901	8.852837	9.113452	0.	0.	0.	-38.503201	-38.796799	-16.005301	-4.937951	47.358704	9.840188	-2.020290	-2.966491	-14.550899	0.	0.	0.	2.095109	24.477802	-19.269302	-12.898903	-14.179802	10.690800	16.320293	3.732310	-20.431803	0.901342	-48.724205	-37.478104	55.272995	-113.058723	51.740002	24.922804	-4.606214	-2.043171	10.959997	-13.481200	-2.908391	-14.660105	37.363789	-19.606398	58.888493	-60.773296	88.856415	-53.807903	14.220106	-26.684902	12.175098	4.053239	-35.192204	12.941798	18.394999	-20.794403	
17.620700	104.186856	-10.751565	175.863510	-132.052521	-80.663101	43.393997	-26.134399	41.018105	-3.237741	8.397795	10.116504	16.884798	8.914574	9.739331	0.	0.	0.	-37.375999	-37.425598	-15.124399	-7.307953	44.948708	11.163106	-2.127005	-2.831813	-14.858901	0.	0.	0.	1.848893	24.246099	-18.681601	-12.559998	-14.309402	10.421199	16.559502	3.930256	-20.296999	-0.865660	-46.594006	-38.046101	56.715012	-113.915878	55.047993	24.699694	-5.326756	-2.064228	11.109603	-13.960704	-3.247879	-14.130795	37.596794	-20.554699	-116.111099	-119.166000	-86.552597	-54.019100	13.572400	-25.550701	12.633402	4.390076	-35.217701	13.000503	18.560602	-20.743402	
18.158264	104.284767	-10.070364	175.696869	-130.566315	-80.690697	44.589199	-25.953102	41.053299	-3.478421	6.913694	11.932209	17.206402	8.884577	10.390811	0.	0.	0.	-36.155106	-35.669506	-13.775099	-8.881832	42.393902	11.521596	-2.208901	-2.749080	-15.222501	0.	0.	0.	1.586382	24.085602	-17.973598	-12.285102	-14.378800	10.190800	16.549900	4.024523	-19.989100	-2.062740	-44.125603	-38.119900	58.262001	-114.745499	58.538013	24.435101	-6.024893	-1.896719	11.203496	-14.429502	-3.539889	-13.672802	37.697216	-21.302801	-111.430901	-119.096794	-82.233513	-54.061996	12.950092	-24.429102	13.062397	4.710144	-35.219398	13.079894	18.701603	-20.772499	
18.714697	104.308341	-9.401839	175.749573	-129.192703	-80.562599	45.692802	-25.658400	41.048195	-3.702096	5.547781	13.606803	17.536201	8.733670	11.025603	0.	0.	0.	-34.940804	-33.449600	-12.037700	-9.735119	39.647995	10.966400	-2.246440	-2.714449	-15.635800	0.	0.	0.	1.332723	24.007401	-17.191502	-12.067296	-14.383800	10.006998	16.300804	4.010590	-19.520102	-2.753778	-41.347095	-37.791298	59.913990	-115.550491	62.177017	24.152798	-6.703772	-1.545506	11.251005	-14.899800	-3.788162	-13.306594	37.678596	-21.823400	-107.077217	-118.975914	-78.170982	-53.924007	12.363104	-23.340796	13.466501	4.999610	-35.197002	13.174498	18.816599	-20.869404	
19.292100	104.255912	-8.740357	176.070587	-127.911903	-80.168602	46.713604	-25.279402	41.037403	-3.887271	4.305550	15.070401	17.886501	8.440327	11.612698	0.	0.	0.	-33.835800	-30.725504	-10.032601	-10.018099	36.658501	9.621838	-2.221219	-2.719129	-16.093901	0.	0.	0.	1.108332	24.015102	-16.380901	-11.898700	-14.324599	9.876838	15.843699	3.891021	-18.913002	-3.020685	-38.293694	-37.151005	61.666008	-116.339104	65.926003	23.881796	-7.364749	-1.021578	11.259104	-15.383398	-3.998801	-13.044398	37.557896	-22.101603	-103.033096	-118.772507	-74.333000	-53.601196	11.820997	-22.305304	13.849805	5.247471	-35.153000	13.278904	18.906504	-21.019503	
19.890876	104.125174	-8.080318	176.689041	-126.706810	-79.430000	47.664299	-24.855198	41.049099	-4.021792	3.194530	16.266296	18.263296	7.993240	12.133796	0.	0.	0.	-32.924801	-27.505598	-7.895121	-9.929942	33.380608	7.663220	-2.117610	-2.750108	-16.593397	0.	0.	0.	0.928298	24.103798	-15.582201	-11.772099	-14.205700	9.805390	15.228498	3.674810	-18.199198	-2.951613	-35.006599	-36.278099	63.506989	-117.125519	69.733009	23.655399	-8.006022	-0.338367	11.232298	-15.889597	-4.179240	-12.887998	37.353306	-22.136097	-99.265793	-118.470108	-70.675011	-53.097603	11.333097	-21.340302	14.215799	5.445849	-35.091599	13.388197	18.973701	-21.207500	
20.509414	103.914024	-7.416461	177.609085	-125.566101	-78.307999	48.562897	-24.430599	41.103500	-4.103205	2.223230	17.160006	18.663500	7.392832	12.581903	0.	0.	0.	-32.255600	-23.847202	-5.748840	-9.683928	29.792496	5.287330	-1.924699	-2.791219	-17.133200	0.	0.	0.	0.802190	24.259701	-14.826900	-11.681998	-14.035601	9.795300	14.515404	3.376458	-17.414000	-2.630803	-31.530605	-35.235004	65.415993	-117.928520	73.539009	23.510405	-8.621911	0.491452	11.173202	-16.425001	-4.337131	-12.829401	37.082298	-21.939800	-95.732697	-118.066078	-67.151001	-52.424995	10.906805	-20.460205	14.567801	5.590159	-35.018505	13.498702	19.021404	-21.419003	
21.144487	103.621716	-6.744150	178.806458	-124.483902	-76.806000	49.432903	-24.050203	41.213001	-4.137450	1.399777	17.744003	19.074804	6.651648	12.958604	0.	0.	0.	-31.831400	-19.849102	-3.688099	-9.473561	25.905302	2.683700	-1.638191	-2.824470	-17.713900	0.	0.	0.	0.734051	24.460403	-14.134899	-11.624601	-13.826900	9.845990	13.766795	3.014563	-16.592899	-2.130781	-27.910107	-34.066505	67.365990	-118.769905	77.275009	23.483410	-9.203508	1.457280	11.082697	-16.992401	-4.479351	-12.852102	36.760910	-21.537502	-92.384407	-117.570053	-63.712997	-51.600594	10.548102	-19.674997	14.908197	5.679074	-34.939503	13.608397	19.052902	-21.642302	
21.720491	103.415547	-6.250316	-179.771545	-123.457008	-74.969002	50.303001	-23.753500	41.384106	-4.136467	0.730450	18.037899	19.474903	5.793759	13.270498	0.	0.	0.	-31.615803	-15.637300	-1.772850	-9.446849	21.764400	0.013845	-1.261870	-2.831402	-18.336498	0.	0.	0.	0.722606	24.676001	-13.513600	-11.597999	-13.595201	9.953530	13.039200	2.610338	-15.767000	-1.506561	-24.186701	-32.802399	69.325005	-119.671310	80.871292	23.606695	-9.740246	2.550080	10.960303	-17.590302	-4.611219	-12.933100	36.402790	-20.963699	-89.167519	-117.001511	-60.313999	-50.645306	10.260305	-18.990904	15.238002	5.714229	-34.859200	13.717304	19.070900	-21.868999	
22.312896	103.301435	-5.846087	-178.203308	-122.480606	-72.882004	51.205799	-23.569799	41.620903	-4.115549	0.218054	18.085796	19.834101	4.852852	13.525598	0.	0.	0.	-31.546200	-11.349201	-0.033284	-9.694121	17.442898	-2.598041	-0.808304	-2.794690	-19.001802	0.	0.	0.	0.761446	24.872297	-12.958300	-11.601794	-13.357700	10.110599	12.377303	2.186129	-14.961202	-0.792417	-20.397301	-31.459801	71.257004	-120.651001	84.264999	23.904400	-10.222399	3.760174	10.804904	-18.213200	-4.735980	-13.045697	36.019402	-20.258699	-86.025597	-116.386574	-56.906006	-49.581497	10.044900	-18.409601	15.556202	5.699709	-34.780106	13.827903	19.077105	-22.095402	
